<?xml version="1.0" standalone="no"?>
<!DOCTYPE svg PUBLIC "-//W3C//DTD SVG 20010904//EN"
 "http://www.w3.org/TR/2001/REC-SVG-20010904/DTD/svg10.dtd">
<svg version="1.0" xmlns="http://www.w3.org/2000/svg"
 width="384.000000pt" height="384.000000pt" viewBox="0 0 384.000000 384.000000"
 preserveAspectRatio="xMidYMid meet">
<metadata>
Created by potrace 1.11, written by Peter Selinger 2001-2013
</metadata>
<g transform="translate(0.000000,384.000000) scale(0.100000,-0.100000)"
fill="#000000" stroke="none">
<path d="M0 1920 l0 -1920 1920 0 1920 0 0 1920 0 1920 -1920 0 -1920 0 0
-1920z m2115 1610 c300 -28 491 -104 638 -253 70 -73 118 -147 156 -245 l26
-67 3 -1013 c2 -990 2 -1015 -18 -1099 -25 -106 -69 -190 -139 -265 -197 -214
-565 -315 -1020 -280 -247 19 -425 73 -576 174 -142 94 -228 214 -265 369 -17
72 -20 118 -20 330 0 284 10 345 82 489 33 65 61 104 123 165 98 99 151 128
377 204 95 33 250 86 343 119 458 163 458 163 520 234 21 24 49 68 64 98 24
50 26 65 26 180 -1 113 -3 130 -27 181 -71 155 -231 229 -493 229 -309 0 -447
-91 -494 -327 l-18 -88 -249 0 -249 0 0 145 c0 160 16 229 77 337 159 284 598
432 1133 383z"/>
<path d="M2420 1892 c-25 -39 -65 -57 -345 -157 -148 -52 -303 -108 -344 -122
-139 -50 -237 -137 -293 -259 -19 -41 -23 -66 -23 -159 0 -231 74 -353 249
-408 63 -19 93 -22 256 -22 163 0 193 3 256 22 126 40 192 108 236 243 20 60
22 91 26 435 2 204 2 388 0 410 -3 39 -3 40 -18 17z"/>
</g>
</svg>
